# xmcd CD database file
#
# Track frame offsets:
#	150
#	14949
#	28295
#	41353
#	54932
#	68728
#	84029
#	94822
#	111398
#	124317
#	139535
#	153559
#	167657
#	180711
#	192899
#	205690
#	219074
#	232392
#	247241
#	261192
#
# Disc length: 3664 seconds
#
# Revision: 0
# Processed by: cddbd v1.4PL0 Copyright (c) Steve Scherf et al.
# Submitted via: CDex 1.50
#
DISCID=1f0e4e14
DTITLE=Louis Armstrong - The Louis Armstrong Connection: Vol. 13: The Orchestra
DYEAR=1900
DGENRE=Jazz
TTITLE0=I Cover The Waterfront
TTITLE1=In The Gloaming
TTITLE2=Long, Long Ago
TTITLE3=Hey Lawdy Mama
TTITLE4=I'll Get Mine Bye and Bye
TTITLE5=Do You Call That A Buddy
TTITLE6=Yes Suh!
TTITLE7=When It's Sleep Time Down South
TTITLE8=Leap Frog
TTITLE9=I Used To Love You
TTITLE10=You Rascal You
TTITLE11=Cash For Your Trash
TTITLE12=Among My Souvenirs
TTITLE13=Coquette
TTITLE14=I Never Knew
TTITLE15=Groovin
TTITLE16=Baby Don't You Cry
TTITLE17=Jodie Man
TTITLE18=I Wonder
TTITLE19=Linger In My Arms
EXTD=
EXTT0=
EXTT1=
EXTT2=
EXTT3=
EXTT4=
EXTT5=
EXTT6=
EXTT7=
EXTT8=
EXTT9=
EXTT10=
EXTT11=
EXTT12=
EXTT13=
EXTT14=
EXTT15=
EXTT16=
EXTT17=
EXTT18=
EXTT19=
PLAYORDER=
